<?xml version="1.0" encoding="UTF-8"?>
<svg xmlns="http://www.w3.org/2000/svg" viewBox="163.22 348.16 147.13 146.71">
<g>
    <path fill="#666666" d="M297.32,437.83c4.58-.08,8.17-4.25,10.01-19.25,0,2.03-.04,4.01-.13,5.94.2-2.07.26-4.16.12-6.2-1.03-15.29-3.84-22.38-6.2-27.28-2.57-5.31-8.75-13.08-16.07-15.55,5.81,20.95,4.33,42.21.78,55.94,4.38,4.71,8.38,6.45,11.48,6.39Z"></path>
    <path fill="#666666" d="M202.47,462.34c-3.04-.84-6.27-2.28-9.16-4.37-3.11-2.25-8.54-7.03-13.48-16.33-4.78-9-6.7-18.53-6.79-27.16-.1-10.34,1.09-16.31,2.93-20.99-2.53,5.6-4.4,11.94-5.04,18.7-.76,8.12-.58,13.41-.06,17.57.63,5.08,2.2,17.86,11.58,30.68,5.4,6.68,12.43,10.67,20.16,11.3,1.54-.03,3.11-.25,4.65-.64-1.46-2.3-2.7-4.53-3.67-6.42-.38-.75-.76-1.53-1.13-2.34Z"></path>
    <path fill="#666666" d="M270.5,476.53s0,0,0-.01c1.58-2.7,3.61-7.14,5.51-13.74-3.16-1.63-6.43-4.23-10.05-8.22-6.4-7.06-14.57-17.66-20.88-39.57,2.82,16.77-.06,29.68-2.22,35.42-1.6,4.27-4.15,8.42-8.76,11.91,10.46,20.02,30.68,22.22,36.38,14.21Z"></path>
    <path fill="#666666" d="M266.95,386.78c1.16,6.71,4.58,23.43,13.42,37.42.4.64.8,1.25,1.2,1.83.13-2.46.23-5,.3-7.66.57-23.79-4.07-56.67-11.62-60.73-3.76-1.11-5.88,14.18-3.3,29.15Z"></path>
    <path fill="#000000" d="M270.48,476.57c-.29.42-.59.82-.89,1.21.33-.38.63-.78.89-1.21Z"></path>
    <path fill="#000000" d="M297.32,437.83c-3.1.06-7.1-1.68-11.48-6.39-1.39-1.49-2.82-3.28-4.27-5.41-.4-.58-.8-1.19-1.2-1.83-8.84-13.99-12.26-30.71-13.42-37.42-2.58-14.97-.46-30.25,3.3-29.15-8.74-4.46-16.01-5.98-19.85-6.28-8.93-.71-13.39,33.36-6.2,60.39.3,1.11.6,2.19.9,3.24,6.31,21.91,14.48,32.51,20.88,39.57,3.62,3.99,6.88,6.59,10.05,8.22,2.68,1.38,5.29,2.06,7.97,2.27,2.97.23,9.18-.25,14.55-8.66,5.39-8.45,8.07-19.11,8.66-31.86.09-1.93.13-3.91.13-5.94-1.85,15-5.44,19.17-10.01,19.25Z"></path>
    <path fill="#000000" d="M270.55,476.47s-.03.04-.05.06c0,.02-.02.03-.03.04.03-.04.05-.07.08-.11Z"></path>
    <path fill="#000000" d="M234.12,462.32c-5.32-10.18-8.11-24.95-5.2-45.34,2.16-15.09,4.4-21.38,6.05-32.86,2.07-14.4,1.38-21.37-3.31-26.65-12.5-14.06-39.32-.63-54.03,22.25-7.13,11.09-11.2,23.8-11.33,37.71-.21,21.71,9.14,55.93,36.4,54.32-.03,0-.06,0-.1-.01-7.73-.63-14.76-4.62-20.16-11.3-9.38-12.82-10.94-25.6-11.58-30.68-.52-4.16-.71-9.45.06-17.57.64-6.76,2.51-13.1,5.04-18.7,5.15-11.41,13.02-19.74,18.77-22.21,9.64-4.13,12.42,2.61,9.8,9.83-3.85,10.6-6.68,18.53-8.32,27.45-1.47,8.05-2.64,18.11-.25,32.45,1.15,6.88,3.56,14.92,6.49,21.34.37.8.74,1.59,1.13,2.34.97,1.89,2.21,4.12,3.67,6.42,2.29,3.6,5.14,7.38,8.39,10.3,4.83,4.34,7.73,6.32,13.13,8.42,4.36,1.7,25.93,7.54,40.79-12.04.3-.4.6-.8.89-1.21,0-.02.02-.03.03-.04-5.7,8.01-25.92,5.81-36.38-14.21Z"></path>
    <path fill="#000000" d="M182.13,419.45c2.63.01,4.98-8.15,7.09-17.56,1.88-8.39,3.43-16.26.45-17.32-3.7-1.31-8.85,6.95-11.21,15.21-2.53,8.87-1.22,19.64,3.67,19.66Z"></path>
  </g>
</svg>