<?xml version="1.0" encoding="UTF-8"?>
<svg xmlns="http://www.w3.org/2000/svg" viewBox="441.27 147.80 135.60 135.07">
  <path fill="#FFFFFF" d="M564.69,230.33c4.2-.07,7.49-3.9,9.19-17.66,0,1.86-.04,3.68-.12,5.45.19-1.9.23-3.81.11-5.69-.94-14.03-3.52-20.53-5.69-25.03-2.35-4.87-8.02-12-14.74-14.26,5.33,19.22,3.98,38.73.72,51.32,4.02,4.32,7.69,5.92,10.53,5.86Z"></path>
  <path fill="#FFFFFF" d="M477.67,252.83c-2.79-.77-5.75-2.09-8.41-4.01-2.85-2.06-7.84-6.45-12.37-14.98-4.38-8.26-6.15-17-6.23-24.92-.09-9.49,1-14.96,2.69-19.26-2.32,5.14-4.04,10.96-4.62,17.16-.7,7.45-.53,12.31-.05,16.12.58,4.66,2.01,16.39,10.62,28.15,4.95,6.13,11.4,9.79,18.5,10.37,1.41-.03,2.85-.23,4.26-.59-1.34-2.11-2.48-4.16-3.37-5.89-.35-.69-.69-1.4-1.03-2.14Z"></path>
  <path fill="#FFFFFF" d="M540.09,265.84s0,0,0-.01c1.45-2.48,3.31-6.55,5.06-12.61-2.9-1.49-5.9-3.88-9.22-7.54-5.87-6.48-13.37-16.2-19.15-36.3,2.58,15.38-.06,27.23-2.03,32.5-1.47,3.92-3.81,7.73-8.04,10.93,9.6,18.37,28.15,20.39,33.38,13.04Z"></path>
  <path fill="#FFFFFF" d="M536.83,183.5c1.06,6.16,4.2,21.49,12.31,34.33.37.58.74,1.14,1.1,1.68.12-2.26.21-4.59.27-7.03.52-21.83-3.74-51.99-10.66-55.72-3.45-1.02-5.4,13.01-3.03,26.74Z"></path>
  <path fill="#8BB3DE" d="M564.69,230.33c-2.85.05-6.51-1.54-10.53-5.86-1.27-1.37-2.58-3.01-3.91-4.96-.37-.54-.73-1.1-1.1-1.68-8.11-12.84-11.25-28.17-12.31-34.33-2.37-13.73-.42-27.76,3.03-26.74-8.02-4.09-14.69-5.48-18.21-5.76-8.2-.65-12.28,30.61-5.69,55.41.27,1.02.55,2.01.83,2.98,5.79,20.1,13.28,29.82,19.15,36.3,3.32,3.66,6.32,6.05,9.22,7.54,2.46,1.27,4.85,1.89,7.31,2.09,2.73.21,8.42-.23,13.35-7.95,4.95-7.75,7.41-17.54,7.95-29.24.08-1.77.12-3.59.12-5.45-1.69,13.76-4.99,17.59-9.19,17.66Z"></path>
  <path fill="#8BB3DE" d="M506.71,252.81c-4.88-9.34-7.44-22.89-4.77-41.6,1.98-13.85,4.04-19.62,5.55-30.15,1.9-13.21,1.27-19.61-3.03-24.45-11.47-12.9-36.08-.58-49.57,20.41-6.54,10.18-10.27,21.84-10.4,34.6-.19,19.92,8.39,51.32,33.4,49.83-.03,0-.06,0-.09,0-7.09-.58-13.55-4.24-18.5-10.37-8.61-11.76-10.04-23.49-10.62-28.15-.48-3.82-.65-8.67.05-16.12.58-6.2,2.3-12.02,4.62-17.16,4.72-10.47,11.94-18.11,17.23-20.38,8.84-3.79,11.4,2.4,8.99,9.02-3.54,9.72-6.13,17-7.63,25.19-1.35,7.39-2.42,16.62-.23,29.77,1.05,6.31,3.26,13.69,5.96,19.58.34.74.68,1.46,1.03,2.14.89,1.73,2.02,3.78,3.37,5.89,2.1,3.3,4.71,6.77,7.7,9.45,4.43,3.98,7.09,5.8,12.05,7.73,4,1.56,23.79,6.92,37.43-11.04.28-.36.55-.73.82-1.11,0-.01.02-.03.03-.04-5.23,7.35-23.78,5.33-33.38-13.04Z"></path>
  <path fill="#8BB3DE" d="M459.01,213.47c2.41.01,4.57-7.48,6.5-16.11,1.73-7.69,3.14-14.92.41-15.89-3.4-1.2-8.12,6.37-10.28,13.96-2.32,8.14-1.12,18.02,3.37,18.04Z"></path>
</svg>