<?xml version="1.0" encoding="UTF-8"?>
<svg id="Layer_1" xmlns="http://www.w3.org/2000/svg" xmlns:xlink="http://www.w3.org/1999/xlink" version="1.1" viewBox="199.85 328.68 223.52 188.63">
  
  <defs>
    
    <linearGradient id="linear-gradient" x1="332.37" y1="314.1" x2="341.9" y2="462.6" gradientUnits="userSpaceOnUse">
      <stop offset=".02" stop-color="#1c3867"></stop>
      <stop offset=".5" stop-color="#3492cc"></stop>
      <stop offset=".58" stop-color="#328cc5"></stop>
      <stop offset=".7" stop-color="#2e7db4"></stop>
      <stop offset=".83" stop-color="#276498"></stop>
      <stop offset=".97" stop-color="#1e4171"></stop>
      <stop offset="1" stop-color="#1c3867"></stop>
    </linearGradient>
    <linearGradient id="linear-gradient1" x1="278.55" y1="432.46" x2="247.56" y2="331.81" gradientUnits="userSpaceOnUse">
      <stop offset=".02" stop-color="#1c3867"></stop>
      <stop offset=".1" stop-color="#224f81"></stop>
      <stop offset=".22" stop-color="#2a6ca1"></stop>
      <stop offset=".33" stop-color="#2f81b9"></stop>
      <stop offset=".44" stop-color="#328dc7"></stop>
      <stop offset=".53" stop-color="#3492cc"></stop>
      <stop offset=".65" stop-color="#338fc8"></stop>
      <stop offset=".74" stop-color="#3086bf"></stop>
      <stop offset=".82" stop-color="#2d77ae"></stop>
      <stop offset=".89" stop-color="#276397"></stop>
      <stop offset=".96" stop-color="#204879"></stop>
      <stop offset="1" stop-color="#1c3867"></stop>
    </linearGradient>
    <linearGradient id="linear-gradient2" x1="298.85" y1="312.17" x2="316.35" y2="453.35" xlink:href="#linear-gradient"></linearGradient>
    <linearGradient id="linear-gradient3" x1="316.06" y1="310.04" x2="333.56" y2="451.22" xlink:href="#linear-gradient"></linearGradient>
    <linearGradient id="linear-gradient4" x1="294.21" y1="311.52" x2="311.7" y2="452.7" xlink:href="#linear-gradient"></linearGradient>
  </defs>
  <g>
    <path class="st0" fill="url(#linear-gradient)" d="M259.23,378.49c.05,5.43,1.26,11.42,4.27,17.08,3.11,5.85,6.52,8.86,8.48,10.27,1.82,1.32,3.85,2.22,5.76,2.75-1.85-4.04-3.36-9.09-4.08-13.42-1.5-9.02-.77-15.34.16-20.41,1.03-5.62,2.81-10.6,5.23-17.27,1.65-4.54-.1-8.78-6.16-6.18-3.62,1.55-8.57,6.79-11.81,13.97-1.16,2.95-1.91,6.7-1.84,13.2ZM262.63,368.9c1.48-5.2,4.72-10.39,7.05-9.57,1.87.66.9,5.62-.28,10.89-1.33,5.92-2.81,11.05-4.46,11.04-3.08-.01-3.9-6.79-2.31-12.37Z"></path>
    <path class="st5" fill="#1c3867" d="M337.39,393.17c2.88-.05,5.14-2.67,6.3-12.11,0,1.28-.02,2.52-.08,3.74.13-1.3.16-2.61.07-3.9-.65-9.62-2.41-14.07-3.9-17.15-1.61-3.34-5.5-8.23-10.1-9.78,3.65,13.17,2.73,26.55.49,35.18,2.76,2.96,5.27,4.06,7.22,4.02Z"></path>
    <path class="st1" fill="url(#linear-gradient1)" d="M277.73,408.59c-1.91-.53-3.94-1.43-5.76-2.75-1.96-1.41-5.37-4.42-8.48-10.27-3-5.66-4.21-11.65-4.27-17.08-.06-6.5.69-10.26,1.84-13.2-1.59,3.52-2.77,7.51-3.17,11.76-.48,5.11-.36,8.43-.04,11.05.4,3.2,1.38,11.23,7.28,19.3,3.39,4.2,7.82,6.71,12.68,7.11.97-.02,1.96-.16,2.92-.4-.92-1.45-1.7-2.85-2.31-4.04-.24-.47-.48-.96-.71-1.47Z"></path>
    <path class="st2" fill="url(#linear-gradient2)" d="M320.52,417.51s0,0,0,0c.99-1.7,2.27-4.49,3.47-8.64-1.99-1.02-4.04-2.66-6.32-5.17-4.03-4.44-9.16-11.11-13.13-24.88,1.77,10.54-.04,18.67-1.39,22.28-1.01,2.68-2.61,5.3-5.51,7.49,6.58,12.59,19.3,13.98,22.88,8.94Z"></path>
    <path class="st3" fill="url(#linear-gradient3)" d="M318.29,361.07c.73,4.22,2.88,14.73,8.44,23.53.25.4.5.78.75,1.15.08-1.55.15-3.15.19-4.82.36-14.97-2.56-35.64-7.31-38.19-2.36-.7-3.7,8.92-2.08,18.33Z"></path>
    <path class="st4" fill="url(#linear-gradient4)" d="M307.72,417.89c-.19.26-.37.52-.56.76.21-.24.4-.49.56-.76Z"></path>
    <path class="st6" fill="#3492cc" d="M337.39,393.17c-1.95.03-4.46-1.06-7.22-4.02-.87-.94-1.77-2.06-2.68-3.4-.25-.37-.5-.75-.75-1.15-5.56-8.8-7.71-19.31-8.44-23.53-1.62-9.41-.29-19.03,2.08-18.33-5.49-2.8-10.07-3.76-12.48-3.95-5.62-.45-8.42,20.98-3.9,37.98.19.7.38,1.37.57,2.04,3.97,13.78,9.1,20.44,13.13,24.88,2.28,2.51,4.33,4.15,6.32,5.17,1.69.87,3.32,1.3,5.01,1.43,1.87.15,5.77-.16,9.15-5.45,3.39-5.31,5.08-12.02,5.45-20.04.06-1.22.08-2.46.08-3.74-1.16,9.43-3.42,12.06-6.3,12.11Z"></path>
    <path class="st6" fill="#3492cc" d="M307.77,417.83s-.02.03-.03.04c0,0-.01.02-.02.03.02-.02.03-.04.05-.07Z"></path>
    <path class="st6" fill="#3492cc" d="M297.64,408.57c-3.34-6.4-5.1-15.69-3.27-28.51,1.36-9.49,2.77-13.45,3.8-20.66,1.3-9.06.87-13.44-2.08-16.76-7.86-8.84-24.73-.4-33.98,13.99-4.48,6.98-7.04,14.97-7.13,23.71-.13,13.65,5.75,35.18,22.9,34.16-.02,0-.04,0-.06,0-4.86-.4-9.29-2.91-12.68-7.11-5.9-8.06-6.88-16.1-7.28-19.3-.33-2.62-.44-5.94.04-11.05.4-4.25,1.58-8.24,3.17-11.76,3.24-7.17,8.19-12.42,11.81-13.97,6.06-2.6,7.81,1.64,6.16,6.18-2.42,6.67-4.2,11.65-5.23,17.27-.93,5.06-1.66,11.39-.16,20.41.72,4.33,2.24,9.38,4.08,13.42.23.51.47,1,.71,1.47.61,1.19,1.39,2.59,2.31,4.04,1.44,2.26,3.23,4.64,5.28,6.48,3.04,2.73,4.86,3.98,8.26,5.3,2.74,1.07,16.31,4.74,25.66-7.57.19-.25.38-.5.56-.76,0,0,.01-.02.02-.03-3.58,5.04-16.3,3.66-22.88-8.94Z"></path>
    <path class="st6" fill="#3492cc" d="M264.94,381.61c1.65,0,3.13-5.13,4.46-11.04,1.18-5.27,2.16-10.23.28-10.89-2.33-.82-5.57,4.37-7.05,9.57-1.59,5.58-.77,12.35,2.31,12.37Z"></path>
  </g>
  <g>
    <path class="st6" fill="#3492cc" d="M209.96,469.06l13-27.86h3.31l13.11,27.86h-7.32l-1.71-3.64h-11.4l-1.67,3.64h-7.32ZM221.81,459.26h5.68l-2.82-6.13-2.86,6.13Z"></path>
    <path class="st6" fill="#3492cc" d="M263.55,469.06l-13.15-13.18v13.18h-7.32v-27.86h2.97l13.19,13.15v-13.15h7.32v27.86h-3.01Z"></path>
    <path class="st6" fill="#3492cc" d="M288.25,450.42c-1.15-1.15-2.79-1.82-4.68-1.82-3.79,0-6.54,2.75-6.54,6.54s2.75,6.54,6.54,6.54c1.89,0,3.53-.67,4.68-1.86l5.2,5.13c-2.53,2.53-6.02,4.12-9.88,4.12-7.69,0-13.93-6.24-13.93-13.93s6.24-13.93,13.93-13.93c3.83,0,7.28,1.52,9.81,4.05l-5.13,5.16Z"></path>
    <path class="st6" fill="#3492cc" d="M306.34,441.2v9.92h8.84v-9.92h7.32v27.86h-7.32v-10.62h-8.84v10.62h-7.32v-27.86h7.32Z"></path>
    <path class="st6" fill="#3492cc" d="M341.44,441.2c7.69,0,13.93,6.28,13.93,13.96s-6.24,13.89-13.93,13.89-13.89-6.2-13.89-13.89,6.2-13.96,13.89-13.96ZM341.44,448.48c-3.64,0-6.61,2.97-6.61,6.65s2.97,6.65,6.61,6.65,6.65-3.01,6.65-6.65-2.97-6.65-6.65-6.65Z"></path>
    <path class="st6" fill="#3492cc" d="M376.61,469.06l-4.31-7.39h-4.53v7.39h-7.32v-27.86h11.74c5.65,0,10.25,4.61,10.25,10.25,0,2.97-1.3,5.65-3.31,7.5l5.91,10.1h-8.43ZM367.77,455.36h4.53c2.23,0,4.01-1.75,4.01-3.97s-1.78-4.01-4.01-4.01h-4.53v7.99Z"></path>
  </g>
  <g>
    <path class="st6" fill="#3492cc" d="M264.99,507.2l-13.15-13.18v13.18h-7.32v-27.86h2.97l13.19,13.15v-13.15h7.32v27.86h-3.01Z"></path>
    <path class="st6" fill="#3492cc" d="M285.09,479.35c7.69,0,13.93,6.28,13.93,13.96s-6.24,13.89-13.93,13.89-13.89-6.2-13.89-13.89,6.2-13.96,13.89-13.96ZM285.09,486.63c-3.64,0-6.61,2.97-6.61,6.65s2.97,6.65,6.61,6.65,6.65-3.01,6.65-6.65-2.97-6.65-6.65-6.65Z"></path>
    <path class="st6" fill="#3492cc" d="M304.1,479.35h10.33c7.69,0,13.93,6.24,13.93,13.93s-6.24,13.93-13.93,13.93h-10.33v-27.86ZM311.38,499.92h3.08c3.64,0,6.61-2.97,6.61-6.61s-2.97-6.57-6.61-6.57h-3.08v13.19Z"></path>
    <path class="st6" fill="#3492cc" d="M333.41,479.35h17.31v6.05h-9.99v4.53h8.84v6.17h-8.84v5.13h9.99v5.98h-17.31v-27.86Z"></path>
  </g>
</svg>