<?xml version="1.0" encoding="UTF-8"?>
<svg id="Layer_1" xmlns="http://www.w3.org/2000/svg" xmlns:xlink="http://www.w3.org/1999/xlink" version="1.1" viewBox="129.43 336.36 336.15 216.43">
  
  <defs>
    
    <linearGradient id="linear-gradient" x1="337.67" y1="317.78" x2="349.32" y2="499.38" gradientUnits="userSpaceOnUse">
      <stop offset=".02" stop-color="#1c3867"></stop>
      <stop offset=".5" stop-color="#3492cc"></stop>
      <stop offset=".58" stop-color="#328cc5"></stop>
      <stop offset=".7" stop-color="#2e7db4"></stop>
      <stop offset=".83" stop-color="#276498"></stop>
      <stop offset=".97" stop-color="#1e4171"></stop>
      <stop offset="1" stop-color="#1c3867"></stop>
    </linearGradient>
    <linearGradient id="linear-gradient1" x1="271.86" y1="462.52" x2="233.96" y2="339.43" gradientUnits="userSpaceOnUse">
      <stop offset=".02" stop-color="#1c3867"></stop>
      <stop offset=".1" stop-color="#224f81"></stop>
      <stop offset=".22" stop-color="#2a6ca1"></stop>
      <stop offset=".33" stop-color="#2f81b9"></stop>
      <stop offset=".44" stop-color="#328dc7"></stop>
      <stop offset=".53" stop-color="#3492cc"></stop>
      <stop offset=".65" stop-color="#338fc8"></stop>
      <stop offset=".74" stop-color="#3086bf"></stop>
      <stop offset=".82" stop-color="#2d77ae"></stop>
      <stop offset=".89" stop-color="#276397"></stop>
      <stop offset=".96" stop-color="#204879"></stop>
      <stop offset="1" stop-color="#1c3867"></stop>
    </linearGradient>
    <linearGradient id="linear-gradient2" x1="296.69" y1="315.42" x2="318.08" y2="488.07" xlink:href="#linear-gradient"></linearGradient>
    <linearGradient id="linear-gradient3" x1="317.73" y1="312.81" x2="339.12" y2="485.46" xlink:href="#linear-gradient"></linearGradient>
    <linearGradient id="linear-gradient4" x1="291" y1="314.62" x2="312.4" y2="487.27" xlink:href="#linear-gradient"></linearGradient>
  </defs>
  <g>
    <path class="st6" fill="#3492cc" d="M141.02,499.14l13.49-28.91h3.43l13.61,28.91h-7.59l-1.77-3.78h-11.83l-1.73,3.78h-7.59ZM153.31,488.96h5.9l-2.93-6.36-2.97,6.36Z"></path>
    <path class="st6" fill="#3492cc" d="M196.63,499.14l-13.64-13.68v13.68h-7.59v-28.91h3.08l13.68,13.64v-13.64h7.59v28.91h-3.12Z"></path>
    <path class="st6" fill="#3492cc" d="M222.26,479.79c-1.19-1.19-2.89-1.89-4.86-1.89-3.93,0-6.78,2.85-6.78,6.78s2.85,6.78,6.78,6.78c1.97,0,3.66-.69,4.86-1.93l5.4,5.32c-2.62,2.62-6.24,4.28-10.25,4.28-7.98,0-14.45-6.48-14.45-14.45s6.48-14.45,14.45-14.45c3.97,0,7.55,1.58,10.18,4.2l-5.32,5.36Z"></path>
    <path class="st6" fill="#3492cc" d="M241.03,470.23v10.29h9.17v-10.29h7.59v28.91h-7.59v-11.02h-9.17v11.02h-7.59v-28.91h7.59Z"></path>
    <path class="st6" fill="#3492cc" d="M277.46,470.23c7.98,0,14.45,6.51,14.45,14.49s-6.47,14.42-14.45,14.42-14.42-6.44-14.42-14.42,6.44-14.49,14.42-14.49ZM277.46,477.78c-3.78,0-6.86,3.08-6.86,6.9s3.08,6.9,6.86,6.9,6.9-3.12,6.9-6.9-3.08-6.9-6.9-6.9Z"></path>
    <path class="st6" fill="#3492cc" d="M313.96,499.14l-4.47-7.67h-4.7v7.67h-7.59v-28.91h12.18c5.86,0,10.64,4.78,10.64,10.64,0,3.08-1.35,5.86-3.43,7.79l6.13,10.48h-8.75ZM304.78,484.91h4.7c2.31,0,4.16-1.81,4.16-4.12s-1.85-4.16-4.16-4.16h-4.7v8.29Z"></path>
    <path class="st6" fill="#3492cc" d="M365.03,499.14l-13.64-13.68v13.68h-7.59v-28.91h3.08l13.68,13.64v-13.64h7.59v28.91h-3.12Z"></path>
    <path class="st6" fill="#3492cc" d="M385.88,470.23c7.98,0,14.45,6.51,14.45,14.49s-6.48,14.42-14.45,14.42-14.42-6.44-14.42-14.42,6.44-14.49,14.42-14.49ZM385.88,477.78c-3.78,0-6.86,3.08-6.86,6.9s3.08,6.9,6.86,6.9,6.9-3.12,6.9-6.9-3.08-6.9-6.9-6.9Z"></path>
    <path class="st6" fill="#3492cc" d="M405.61,470.23h10.72c7.98,0,14.45,6.48,14.45,14.45s-6.48,14.45-14.45,14.45h-10.72v-28.91ZM413.17,491.58h3.2c3.78,0,6.86-3.08,6.86-6.86s-3.08-6.82-6.86-6.82h-3.2v13.68Z"></path>
    <path class="st6" fill="#3492cc" d="M436.02,470.23h17.96v6.28h-10.37v4.7h9.17v6.4h-9.17v5.32h10.37v6.21h-17.96v-28.91Z"></path>
  </g>
  <g>
    <path class="st0" fill="url(#linear-gradient)" d="M248.23,396.51c.07,6.64,1.54,13.97,5.22,20.89,3.8,7.15,7.98,10.83,10.37,12.56,2.23,1.61,4.71,2.72,7.05,3.36-2.26-4.94-4.11-11.12-4.99-16.41-1.84-11.03-.94-18.76.19-24.95,1.26-6.87,3.43-12.96,6.4-21.12,2.02-5.55-.12-10.73-7.54-7.56-4.43,1.9-10.48,8.31-14.44,17.08-1.42,3.6-2.33,8.19-2.26,16.15ZM252.39,384.79c1.81-6.36,5.77-12.71,8.62-11.7,2.29.81,1.1,6.87-.34,13.32-1.62,7.24-3.43,13.52-5.45,13.51-3.76-.02-4.77-8.3-2.83-15.12Z"></path>
    <path class="st5" fill="#1c3867" d="M343.81,414.47c3.52-.06,6.28-3.27,7.7-14.8,0,1.56-.03,3.08-.1,4.57.16-1.59.2-3.2.09-4.77-.79-11.76-2.95-17.21-4.77-20.98-1.97-4.08-6.73-10.06-12.36-11.96,4.47,16.11,3.33,32.46.6,43.02,3.37,3.62,6.44,4.96,8.83,4.92Z"></path>
    <path class="st1" fill="url(#linear-gradient1)" d="M270.86,433.32c-2.34-.65-4.82-1.75-7.05-3.36-2.39-1.73-6.57-5.4-10.37-12.56-3.67-6.92-5.15-14.25-5.22-20.89-.08-7.95.84-12.54,2.26-16.15-1.94,4.31-3.38,9.18-3.87,14.38-.59,6.25-.44,10.31-.05,13.52.49,3.91,1.69,13.74,8.9,23.6,4.15,5.14,9.56,8.21,15.51,8.69,1.18-.02,2.39-.19,3.57-.49-1.13-1.77-2.08-3.49-2.82-4.94-.29-.58-.58-1.18-.87-1.8Z"></path>
    <path class="st2" fill="url(#linear-gradient2)" d="M323.18,444.24s0,0,0,0c1.21-2.08,2.77-5.49,4.24-10.57-2.43-1.25-4.94-3.25-7.73-6.32-4.92-5.43-11.21-13.58-16.06-30.43,2.17,12.89-.05,22.83-1.7,27.24-1.23,3.28-3.19,6.48-6.74,9.16,8.05,15.4,23.6,17.09,27.98,10.93Z"></path>
    <path class="st3" fill="url(#linear-gradient3)" d="M320.45,375.21c.89,5.16,3.52,18.02,10.32,28.78.31.49.62.96.92,1.41.1-1.89.18-3.85.23-5.89.44-18.3-3.13-43.58-8.93-46.71-2.89-.85-4.52,10.9-2.54,22.42Z"></path>
    <path class="st4" fill="url(#linear-gradient4)" d="M307.52,444.7c-.23.32-.46.63-.69.93.25-.29.49-.6.69-.93Z"></path>
    <path class="st6" fill="#3492cc" d="M343.81,414.47c-2.39.04-5.46-1.29-8.83-4.92-1.07-1.15-2.17-2.52-3.28-4.16-.31-.45-.61-.92-.92-1.41-6.8-10.76-9.43-23.62-10.32-28.78-1.98-11.51-.35-23.27,2.54-22.42-6.72-3.43-12.31-4.6-15.26-4.83-6.87-.55-10.3,25.66-4.77,46.45.23.85.46,1.68.69,2.49,4.85,16.85,11.13,25,16.06,30.43,2.78,3.07,5.29,5.07,7.73,6.32,2.06,1.06,4.07,1.59,6.13,1.75,2.28.18,7.06-.19,11.19-6.66,4.15-6.5,6.21-14.7,6.66-24.51.07-1.49.1-3.01.1-4.57-1.42,11.54-4.18,14.74-7.7,14.8Z"></path>
    <path class="st6" fill="#3492cc" d="M307.58,444.62s-.03.03-.04.05c0,.01-.02.02-.02.03.02-.03.04-.05.06-.08Z"></path>
    <path class="st6" fill="#3492cc" d="M295.2,433.31c-4.09-7.83-6.24-19.19-4-34.87,1.66-11.61,3.39-16.44,4.65-25.27,1.59-11.08,1.06-16.44-2.54-20.49-9.61-10.81-30.24-.49-41.55,17.11-5.48,8.53-8.61,18.3-8.71,29-.16,16.7,7.03,43.02,28,41.77-.03,0-.05,0-.07,0-5.95-.49-11.35-3.55-15.51-8.69-7.22-9.86-8.42-19.69-8.9-23.6-.4-3.2-.54-7.27.05-13.52.49-5.2,1.93-10.07,3.87-14.38,3.96-8.77,10.01-15.18,14.44-17.08,7.41-3.18,9.55,2.01,7.54,7.56-2.96,8.15-5.14,14.25-6.4,21.12-1.13,6.19-2.03,13.93-.19,24.95.88,5.29,2.73,11.47,4.99,16.41.28.62.57,1.22.87,1.8.74,1.45,1.7,3.17,2.82,4.94,1.76,2.77,3.95,5.67,6.45,7.92,3.72,3.34,5.94,4.86,10.1,6.48,3.36,1.31,19.94,5.8,31.37-9.26.23-.3.46-.61.69-.93,0-.01.02-.02.02-.03-4.38,6.16-19.94,4.47-27.98-10.93Z"></path>
    <path class="st6" fill="#3492cc" d="M255.22,400.33c2.02,0,3.83-6.27,5.45-13.51,1.45-6.45,2.64-12.51.34-13.32-2.85-1.01-6.81,5.34-8.62,11.7-1.95,6.82-.94,15.11,2.83,15.12Z"></path>
  </g>
</svg>