<?xml version="1.0" encoding="UTF-8"?>
<svg id="Layer_1" xmlns="http://www.w3.org/2000/svg" xmlns:xlink="http://www.w3.org/1999/xlink" version="1.1" viewBox="0 0 595.28 841.89">
  
  <defs>
    
    <linearGradient id="linear-gradient" x1="207.64" y1="366.2" x2="215.02" y2="481.31" gradientUnits="userSpaceOnUse">
      <stop offset=".02" stop-color="#1c3867"></stop>
      <stop offset=".5" stop-color="#3492cc"></stop>
      <stop offset=".58" stop-color="#328cc5"></stop>
      <stop offset=".7" stop-color="#2e7db4"></stop>
      <stop offset=".83" stop-color="#276498"></stop>
      <stop offset=".97" stop-color="#1e4171"></stop>
      <stop offset="1" stop-color="#1c3867"></stop>
    </linearGradient>
    <linearGradient id="linear-gradient1" x1="165.92" y1="457.95" x2="141.89" y2="379.93" gradientUnits="userSpaceOnUse">
      <stop offset=".02" stop-color="#1c3867"></stop>
      <stop offset=".1" stop-color="#224f81"></stop>
      <stop offset=".22" stop-color="#2a6ca1"></stop>
      <stop offset=".33" stop-color="#2f81b9"></stop>
      <stop offset=".44" stop-color="#328dc7"></stop>
      <stop offset=".53" stop-color="#3492cc"></stop>
      <stop offset=".65" stop-color="#338fc8"></stop>
      <stop offset=".74" stop-color="#3086bf"></stop>
      <stop offset=".82" stop-color="#2d77ae"></stop>
      <stop offset=".89" stop-color="#276397"></stop>
      <stop offset=".96" stop-color="#204879"></stop>
      <stop offset="1" stop-color="#1c3867"></stop>
    </linearGradient>
    <linearGradient id="linear-gradient2" x1="181.65" y1="364.7" x2="195.22" y2="474.14" xlink:href="#linear-gradient"></linearGradient>
    <linearGradient id="linear-gradient3" x1="194.99" y1="363.05" x2="208.56" y2="472.49" xlink:href="#linear-gradient"></linearGradient>
    <linearGradient id="linear-gradient4" x1="178.05" y1="364.2" x2="191.61" y2="473.64" xlink:href="#linear-gradient"></linearGradient>
  </defs>
  <g>
    <path class="st0" d="M150.94,416.11c.04,4.21.98,8.85,3.31,13.24,2.41,4.54,5.06,6.86,6.57,7.96,1.41,1.02,2.99,1.72,4.47,2.13-1.43-3.13-2.61-7.05-3.16-10.4-1.16-6.99-.6-11.89.12-15.82.8-4.35,2.18-8.22,4.05-13.38,1.28-3.52-.08-6.8-4.78-4.79-2.81,1.2-6.64,5.27-9.15,10.83-.9,2.28-1.48,5.19-1.43,10.23ZM153.58,408.68c1.15-4.03,3.66-8.05,5.46-7.42,1.45.51.7,4.35-.22,8.44-1.03,4.59-2.18,8.57-3.46,8.56-2.39-.01-3.03-5.26-1.79-9.59Z"></path>
    <path class="st5" d="M211.52,427.49c2.23-.04,3.98-2.07,4.88-9.38,0,.99-.02,1.95-.06,2.9.1-1.01.12-2.03.06-3.02-.5-7.46-1.87-10.91-3.02-13.3-1.25-2.59-4.26-6.38-7.83-7.58,2.83,10.21,2.11,20.58.38,27.27,2.14,2.3,4.08,3.14,5.6,3.12Z"></path>
    <path class="st1" d="M165.28,439.44c-1.48-.41-3.06-1.11-4.47-2.13-1.52-1.1-4.16-3.43-6.57-7.96-2.33-4.39-3.27-9.03-3.31-13.24-.05-5.04.53-7.95,1.43-10.23-1.23,2.73-2.15,5.82-2.46,9.12-.37,3.96-.28,6.54-.03,8.57.31,2.48,1.07,8.71,5.64,14.96,2.63,3.26,6.06,5.2,9.83,5.51.75-.01,1.52-.12,2.27-.31-.71-1.12-1.32-2.21-1.79-3.13-.19-.36-.37-.75-.55-1.14Z"></path>
    <path class="st2" d="M198.45,446.36s0,0,0,0c.77-1.32,1.76-3.48,2.69-6.7-1.54-.79-3.13-2.06-4.9-4.01-3.12-3.44-7.1-8.61-10.18-19.29,1.37,8.17-.03,14.47-1.08,17.27-.78,2.08-2.03,4.11-4.27,5.81,5.1,9.76,14.96,10.83,17.74,6.93Z"></path>
    <path class="st3" d="M196.72,402.61c.56,3.27,2.23,11.42,6.54,18.24.2.31.39.61.59.89.06-1.2.11-2.44.14-3.74.28-11.6-1.98-27.63-5.66-29.61-1.83-.54-2.87,6.91-1.61,14.21Z"></path>
    <path class="st4" d="M188.53,446.66c-.14.2-.29.4-.44.59.16-.18.31-.38.44-.59Z"></path>
    <path class="st7" d="M211.52,427.49c-1.51.03-3.46-.82-5.6-3.12-.68-.73-1.37-1.6-2.08-2.64-.19-.28-.39-.58-.59-.89-4.31-6.82-5.98-14.97-6.54-18.24-1.26-7.3-.22-14.75,1.61-14.21-4.26-2.17-7.81-2.91-9.68-3.06-4.35-.35-6.53,16.27-3.02,29.44.14.54.29,1.07.44,1.58,3.07,10.68,7.06,15.85,10.18,19.29,1.76,1.95,3.36,3.21,4.9,4.01,1.31.67,2.58,1.01,3.88,1.11,1.45.11,4.47-.12,7.09-4.22,2.63-4.12,3.94-9.32,4.22-15.53.04-.94.06-1.91.06-2.9-.9,7.31-2.65,9.35-4.88,9.38Z"></path>
    <path class="st7" d="M188.56,446.6s-.02.02-.02.03c0,0,0,.01-.01.02.01-.02.03-.03.04-.05Z"></path>
    <path class="st7" d="M180.72,439.43c-2.59-4.96-3.96-12.16-2.53-22.1,1.05-7.36,2.15-10.42,2.95-16.02,1.01-7.02.67-10.42-1.61-12.99-6.09-6.85-19.17-.31-26.34,10.85-3.48,5.41-5.46,11.6-5.52,18.38-.1,10.58,4.46,27.27,17.75,26.48-.02,0-.03,0-.05,0-3.77-.31-7.2-2.25-9.83-5.51-4.57-6.25-5.34-12.48-5.64-14.96-.25-2.03-.34-4.61.03-8.57.31-3.29,1.22-6.38,2.46-9.12,2.51-5.56,6.35-9.62,9.15-10.83,4.7-2.01,6.06,1.27,4.78,4.79-1.88,5.17-3.26,9.03-4.05,13.38-.72,3.92-1.29,8.83-.12,15.82.56,3.36,1.73,7.27,3.16,10.4.18.39.36.77.55,1.14.47.92,1.08,2.01,1.79,3.13,1.12,1.76,2.5,3.6,4.09,5.02,2.36,2.11,3.77,3.08,6.4,4.11,2.13.83,12.64,3.68,19.89-5.87.15-.19.29-.39.44-.59,0,0,0-.01.01-.02-2.78,3.91-12.64,2.83-17.74-6.93Z"></path>
    <path class="st7" d="M155.37,418.53c1.28,0,2.43-3.97,3.46-8.56.92-4.09,1.67-7.93.22-8.44-1.81-.64-4.31,3.39-5.46,7.42-1.23,4.32-.59,9.58,1.79,9.59Z"></path>
  </g>
  <text class="st8" transform="translate(228.9 413.6)"><tspan x="0" y="0">Anchor </tspan></text>
  <text class="st6" transform="translate(227.99 453.47)"><tspan x="0" y="0">Node</tspan></text>
</svg>