<?xml version="1.0" encoding="UTF-8"?>
<svg id="Layer_1" xmlns="http://www.w3.org/2000/svg" version="1.1" viewBox="0 0 841.89 595.28">
  
  <defs>
    
  </defs>
  <text class="st3" transform="translate(80.09 154.58)"><tspan x="0" y="0">Word Mark</tspan></text>
  <text class="st0" transform="translate(275.52 289.58)"><tspan x="0" y="0">Ultra Light</tspan></text>
  <text class="st0" transform="translate(275.52 323.89)"><tspan x="0" y="0">Regular</tspan></text>
  <text class="st0" transform="translate(275.52 358.07)"><tspan x="0" y="0">DemiBold</tspan></text>
  <text class="st0" transform="translate(275.52 438.67)"><tspan x="0" y="0">Light</tspan></text>
  <text class="st0" transform="translate(275.52 489.5)"><tspan x="0" y="0">Bold</tspan></text>
  <text class="st0" transform="translate(275.52 544.9)"><tspan x="0" y="0">Heavy</tspan></text>
  <text class="st3" transform="translate(80.09 247.8)"><tspan x="0" y="0">Main Type English</tspan></text>
  <text class="st3" transform="translate(80.09 408.03)"><tspan x="0" y="0">Main Type Korean</tspan></text>
  <text class="st5" transform="translate(298.74 408.03)"><tspan x="0" y="0">나눔스퀘어 네오 OTF</tspan></text>
  <text class="st1" transform="translate(80.09 114.18)"><tspan x="0" y="0">Type</tspan></text>
  <text class="st8" transform="translate(314.76 159.45)"><tspan x="0" y="0">Big John</tspan></text>
  <text class="st2" transform="translate(314.76 247.8)"><tspan x="0" y="0">Avenir Next Family</tspan></text>
  <text class="st9" transform="translate(314.76 196.01)"><tspan x="0" y="0">ABCDEFGHIJKLMNOPQRSTUVWXYZ</tspan></text>
  <text class="st10" transform="translate(351.99 289.58)"><tspan x="0" y="0">ABCDEFGHIJKLMNOPQRSTUVWXYZ</tspan></text>
  <text class="st7" transform="translate(351.99 438.67)"><tspan x="0" y="0">앵커노드는 우주시민 모두에게 즐거움과 행복을 선사하는 </tspan><tspan x="0" y="24">게임과 콘텐츠를 개발를 개발합니다.</tspan></text>
  <text class="st4" transform="translate(351.99 489.5)"><tspan x="0" y="0">앵커노드는 우주시민 모두에게 즐거움과 행복을 선사하는 </tspan><tspan x="0" y="24">게임과 콘텐츠를 개발를 개발합니다.</tspan></text>
  <text class="st6" transform="translate(351.99 541.29)"><tspan x="0" y="0">앵커노드는 우주시민 모두에게 즐거움과 행복을 선사하는 </tspan><tspan x="0" y="24">게임과 콘텐츠를 개발를 개발합니다.</tspan></text>
  <text class="st1" transform="translate(351.99 358.07)"><tspan x="0" y="0">ABCDEFGHIJKLMNOPQRSTUVWXYZ</tspan></text>
  <text class="st11" transform="translate(351.99 323.89)"><tspan x="0" y="0">ABCDEFGHIJKLMNOPQRSTUVWXYZ</tspan></text>
</svg>