<?xml version="1.0" encoding="UTF-8"?>
<svg xmlns="http://www.w3.org/2000/svg" viewBox="141 470 313 29">
  <g fill="#1B6AB4">
    <path d="M141.02,499.14l13.49-28.91h3.43l13.61,28.91h-7.59l-1.77-3.78h-11.83l-1.73,3.78h-7.59ZM153.31,488.96h5.9l-2.93-6.36-2.97,6.36Z"></path>
    <path d="M196.63,499.14l-13.64-13.68v13.68h-7.59v-28.91h3.08l13.68,13.64v-13.64h7.59v28.91h-3.12Z"></path>
    <path d="M222.26,479.79c-1.19-1.19-2.89-1.89-4.86-1.89-3.93,0-6.78,2.85-6.78,6.78s2.85,6.78,6.78,6.78c1.97,0,3.66-.69,4.86-1.93l5.4,5.32c-2.62,2.62-6.24,4.28-10.25,4.28-7.98,0-14.45-6.48-14.45-14.45s6.48-14.45,14.45-14.45c3.97,0,7.55,1.58,10.18,4.2l-5.32,5.36Z"></path>
    <path d="M241.03,470.23v10.29h9.17v-10.29h7.59v28.91h-7.59v-11.02h-9.17v11.02h-7.59v-28.91h7.59Z"></path>
    <path d="M277.46,470.23c7.98,0,14.45,6.51,14.45,14.49s-6.47,14.42-14.45,14.42-14.42-6.44-14.42-14.42,6.44-14.49,14.42-14.49ZM277.46,477.78c-3.78,0-6.86,3.08-6.86,6.9s3.08,6.9,6.86,6.9,6.9-3.12,6.9-6.9-3.08-6.9-6.9-6.9Z"></path>
    <path d="M313.96,499.14l-4.47-7.67h-4.7v7.67h-7.59v-28.91h12.18c5.86,0,10.64,4.78,10.64,10.64,0,3.08-1.35,5.86-3.43,7.79l6.13,10.48h-8.75ZM304.78,484.91h4.7c2.31,0,4.16-1.81,4.16-4.12s-1.85-4.16-4.16-4.16h-4.7v8.29Z"></path>
    <path d="M365.03,499.14l-13.64-13.68v13.68h-7.59v-28.91h3.08l13.68,13.64v-13.64h7.59v28.91h-3.12Z"></path>
    <path d="M385.88,470.23c7.98,0,14.45,6.51,14.45,14.49s-6.48,14.42-14.45,14.42-14.42-6.44-14.42-14.42,6.44-14.49,14.42-14.49ZM385.88,477.78c-3.78,0-6.86,3.08-6.86,6.9s3.08,6.9,6.86,6.9,6.9-3.12,6.9-6.9-3.08-6.9-6.9-6.9Z"></path>
    <path d="M405.61,470.23h10.72c7.98,0,14.45,6.48,14.45,14.45s-6.48,14.45-14.45,14.45h-10.72v-28.91ZM413.17,491.58h3.2c3.78,0,6.86-3.08,6.86-6.86s-3.08-6.82-6.86-6.82h-3.2v13.68Z"></path>
    <path d="M436.02,470.23h17.96v6.28h-10.37v4.7h9.17v6.4h-9.17v5.32h10.37v6.21h-17.96v-28.91Z"></path>
  </g>
</svg>