<?xml version="1.0" encoding="UTF-8"?>
<svg xmlns="http://www.w3.org/2000/svg" viewBox="207 439 180 71">
  <g fill="#1B6AB4">
    <path d="M209.96,469.06l13-27.86h3.31l13.11,27.86h-7.32l-1.71-3.64h-11.4l-1.67,3.64h-7.32ZM221.81,459.26h5.68l-2.82-6.13-2.86,6.13Z"></path>
    <path d="M263.55,469.06l-13.15-13.18v13.18h-7.32v-27.86h2.97l13.19,13.15v-13.15h7.32v27.86h-3.01Z"></path>
    <path d="M288.25,450.42c-1.15-1.15-2.79-1.82-4.68-1.82-3.79,0-6.54,2.75-6.54,6.54s2.75,6.54,6.54,6.54c1.89,0,3.53-.67,4.68-1.86l5.2,5.13c-2.53,2.53-6.02,4.12-9.88,4.12-7.69,0-13.93-6.24-13.93-13.93s6.24-13.93,13.93-13.93c3.83,0,7.28,1.52,9.81,4.05l-5.13,5.16Z"></path>
    <path d="M306.34,441.2v9.92h8.84v-9.92h7.32v27.86h-7.32v-10.62h-8.84v10.62h-7.32v-27.86h7.32Z"></path>
    <path d="M341.44,441.2c7.69,0,13.93,6.28,13.93,13.96s-6.24,13.89-13.93,13.89-13.89-6.2-13.89-13.89,6.2-13.96,13.89-13.96ZM341.44,448.48c-3.64,0-6.61,2.97-6.61,6.65s2.97,6.65,6.61,6.65,6.65-3.01,6.65-6.65-2.97-6.65-6.65-6.65Z"></path>
    <path d="M376.61,469.06l-4.31-7.39h-4.53v7.39h-7.32v-27.86h11.74c5.65,0,10.25,4.61,10.25,10.25,0,2.97-1.3,5.65-3.31,7.5l5.91,10.1h-8.43ZM367.77,455.36h4.53c2.23,0,4.01-1.75,4.01-3.97s-1.78-4.01-4.01-4.01h-4.53v7.99Z"></path>
    <path d="M264.99,507.2l-13.15-13.18v13.18h-7.32v-27.86h2.97l13.19,13.15v-13.15h7.32v27.86h-3.01Z"></path>
    <path d="M285.09,479.35c7.69,0,13.93,6.28,13.93,13.96s-6.24,13.89-13.93,13.89-13.89-6.2-13.89-13.89,6.2-13.96,13.89-13.96ZM285.09,486.63c-3.64,0-6.61,2.97-6.61,6.65s2.97,6.65,6.61,6.65,6.65-3.01,6.65-6.65-2.97-6.65-6.65-6.65Z"></path>
    <path d="M304.1,479.35h10.33c7.69,0,13.93,6.24,13.93,13.93s-6.24,13.93-13.93,13.93h-10.33v-27.86ZM311.38,499.92h3.08c3.64,0,6.61-2.97,6.61-6.61s-2.97-6.57-6.61-6.57h-3.08v13.19Z"></path>
    <path d="M333.41,479.35h17.31v6.05h-9.99v4.53h8.84v6.17h-8.84v5.13h9.99v5.98h-17.31v-27.86Z"></path>
  </g>
</svg>