<?xml version="1.0" encoding="UTF-8"?>
<svg id="Layer_1" xmlns="http://www.w3.org/2000/svg" version="1.1" viewBox="0 0 841.89 595.28">
  
  <defs>
    
  </defs>
  <rect class="st4" x="61.33" y="99.31" width="360.05" height="395.76"></rect>
  <rect x="420.24" y="99.31" width="360.05" height="395.76"></rect>
  <path class="st0" d="M224.16,230.33c4.2-.07,7.49-3.9,9.19-17.66,0,1.86-.04,3.68-.12,5.45.19-1.9.23-3.81.11-5.69-.94-14.03-3.52-20.53-5.69-25.03-2.35-4.87-8.02-12-14.74-14.26,5.33,19.22,3.98,38.73.72,51.32,4.02,4.32,7.69,5.92,10.53,5.86Z"></path>
  <path class="st0" d="M137.14,252.83c-2.79-.77-5.75-2.09-8.41-4.01-2.85-2.06-7.84-6.45-12.37-14.98-4.38-8.26-6.15-17-6.23-24.92-.09-9.49,1-14.96,2.69-19.26-2.32,5.14-4.04,10.96-4.62,17.16-.7,7.45-.53,12.31-.05,16.12.58,4.66,2.01,16.39,10.62,28.15,4.95,6.13,11.4,9.79,18.5,10.37,1.41-.03,2.85-.23,4.26-.59-1.34-2.11-2.48-4.16-3.37-5.89-.35-.69-.69-1.4-1.03-2.14Z"></path>
  <path class="st0" d="M199.56,265.84s0,0,0-.01c1.45-2.48,3.31-6.55,5.06-12.61-2.9-1.49-5.9-3.88-9.22-7.54-5.87-6.48-13.37-16.2-19.15-36.3,2.58,15.38-.06,27.23-2.03,32.5-1.47,3.92-3.81,7.73-8.04,10.93,9.6,18.37,28.15,20.39,33.38,13.04Z"></path>
  <path class="st0" d="M196.3,183.5c1.06,6.16,4.2,21.49,12.31,34.33.37.58.74,1.14,1.1,1.68.12-2.26.21-4.59.27-7.03.52-21.83-3.74-51.99-10.66-55.72-3.45-1.02-5.4,13.01-3.03,26.74Z"></path>
  <path class="st2" d="M224.16,230.33c-2.85.05-6.51-1.54-10.53-5.86-1.27-1.37-2.58-3.01-3.91-4.96-.37-.54-.73-1.1-1.1-1.68-8.11-12.84-11.25-28.17-12.31-34.33-2.37-13.73-.42-27.76,3.03-26.74-8.02-4.09-14.69-5.48-18.21-5.76-8.2-.65-12.28,30.61-5.69,55.41.27,1.02.55,2.01.83,2.98,5.79,20.1,13.28,29.82,19.15,36.3,3.32,3.66,6.32,6.05,9.22,7.54,2.46,1.27,4.85,1.89,7.31,2.09,2.73.21,8.42-.23,13.35-7.95,4.95-7.75,7.41-17.54,7.95-29.24.08-1.77.12-3.59.12-5.45-1.69,13.76-4.99,17.59-9.19,17.66Z"></path>
  <path class="st2" d="M166.18,252.81c-4.88-9.34-7.44-22.89-4.77-41.6,1.98-13.85,4.04-19.62,5.55-30.15,1.9-13.21,1.27-19.61-3.03-24.45-11.47-12.9-36.08-.58-49.57,20.41-6.54,10.18-10.27,21.84-10.4,34.6-.19,19.92,8.39,51.32,33.4,49.83-.03,0-.06,0-.09,0-7.09-.58-13.55-4.24-18.5-10.37-8.61-11.76-10.04-23.49-10.62-28.15-.48-3.82-.65-8.67.05-16.12.58-6.2,2.3-12.02,4.62-17.16,4.72-10.47,11.94-18.11,17.23-20.38,8.84-3.79,11.4,2.4,8.99,9.02-3.54,9.72-6.13,17-7.63,25.19-1.35,7.39-2.42,16.62-.23,29.77,1.05,6.31,3.26,13.69,5.96,19.58.34.74.68,1.46,1.03,2.14.89,1.73,2.02,3.78,3.37,5.89,2.1,3.3,4.71,6.77,7.7,9.45,4.43,3.98,7.09,5.8,12.05,7.73,4,1.56,23.79,6.92,37.43-11.04.28-.36.55-.73.82-1.11,0-.01.02-.03.03-.04-5.23,7.35-23.78,5.33-33.38-13.04Z"></path>
  <path class="st2" d="M118.48,213.47c2.41.01,4.57-7.48,6.5-16.11,1.73-7.69,3.14-14.92.41-15.89-3.4-1.2-8.12,6.37-10.28,13.96-2.32,8.14-1.12,18.02,3.37,18.04Z"></path>
  <path class="st2" d="M382.16,230.33c4.2-.07,7.49-3.9,9.19-17.66,0,1.86-.04,3.68-.12,5.45.19-1.9.23-3.81.11-5.69-.94-14.03-3.52-20.53-5.69-25.03-2.35-4.87-8.02-12-14.74-14.26,5.33,19.22,3.98,38.73.72,51.32,4.02,4.32,7.69,5.92,10.53,5.86Z"></path>
  <path class="st0" d="M295.13,252.83c-2.79-.77-5.75-2.09-8.41-4.01-2.85-2.06-7.84-6.45-12.37-14.98-4.38-8.26-6.15-17-6.23-24.92-.09-9.49,1-14.96,2.69-19.26-2.32,5.14-4.04,10.96-4.62,17.16-.7,7.45-.53,12.31-.05,16.12.58,4.66,2.01,16.39,10.62,28.15,4.95,6.13,11.4,9.79,18.5,10.37,1.41-.03,2.85-.23,4.26-.59-1.34-2.11-2.48-4.16-3.37-5.89-.35-.69-.69-1.4-1.03-2.14Z"></path>
  <path class="st2" d="M357.55,265.84s0,0,0-.01c1.45-2.48,3.31-6.55,5.06-12.61-2.9-1.49-5.9-3.88-9.22-7.54-5.87-6.48-13.37-16.2-19.15-36.3,2.58,15.38-.06,27.23-2.03,32.5-1.47,3.92-3.81,7.73-8.04,10.93,9.6,18.37,28.15,20.39,33.38,13.04Z"></path>
  <path class="st2" d="M354.29,183.5c1.06,6.16,4.2,21.49,12.31,34.33.37.58.74,1.14,1.1,1.68.12-2.26.21-4.59.27-7.03.52-21.83-3.74-51.99-10.66-55.72-3.45-1.02-5.4,13.01-3.03,26.74Z"></path>
  <path class="st6" d="M382.16,230.33c-2.85.05-6.51-1.54-10.53-5.86-1.27-1.37-2.58-3.01-3.91-4.96-.37-.54-.73-1.1-1.1-1.68-8.11-12.84-11.25-28.17-12.31-34.33-2.37-13.73-.42-27.76,3.03-26.74-8.02-4.09-14.69-5.48-18.21-5.76-8.2-.65-12.28,30.61-5.69,55.41.27,1.02.55,2.01.83,2.98,5.79,20.1,13.28,29.82,19.15,36.3,3.32,3.66,6.32,6.05,9.22,7.54,2.46,1.27,4.85,1.89,7.31,2.09,2.73.21,8.42-.23,13.35-7.95,4.95-7.75,7.41-17.54,7.95-29.24.08-1.77.12-3.59.12-5.45-1.69,13.76-4.99,17.59-9.19,17.66Z"></path>
  <path class="st6" d="M324.17,252.81c-4.88-9.34-7.44-22.89-4.77-41.6,1.98-13.85,4.04-19.62,5.55-30.15,1.9-13.21,1.27-19.61-3.03-24.45-11.47-12.9-36.08-.58-49.57,20.41-6.54,10.18-10.27,21.84-10.4,34.6-.19,19.92,8.39,51.32,33.4,49.83-.03,0-.06,0-.09,0-7.09-.58-13.55-4.24-18.5-10.37-8.61-11.76-10.04-23.49-10.62-28.15-.48-3.82-.65-8.67.05-16.12.58-6.2,2.3-12.02,4.62-17.16,4.72-10.47,11.94-18.11,17.23-20.38,8.84-3.79,11.4,2.4,8.99,9.02-3.54,9.72-6.13,17-7.63,25.19-1.35,7.39-2.42,16.62-.23,29.77,1.05,6.31,3.26,13.69,5.96,19.58.34.74.68,1.46,1.03,2.14.89,1.73,2.02,3.78,3.37,5.89,2.1,3.3,4.71,6.77,7.7,9.45,4.43,3.98,7.09,5.8,12.05,7.73,4,1.56,23.79,6.92,37.43-11.04.28-.36.55-.73.82-1.11,0-.01.02-.03.03-.04-5.23,7.35-23.78,5.33-33.38-13.04Z"></path>
  <path class="st6" d="M276.47,213.47c2.41.01,4.57-7.48,6.5-16.11,1.73-7.69,3.14-14.92.41-15.89-3.4-1.2-8.12,6.37-10.28,13.96-2.32,8.14-1.12,18.02,3.37,18.04Z"></path>
  <path class="st7" d="M564.69,230.33c4.2-.07,7.49-3.9,9.19-17.66,0,1.86-.04,3.68-.12,5.45.19-1.9.23-3.81.11-5.69-.94-14.03-3.52-20.53-5.69-25.03-2.35-4.87-8.02-12-14.74-14.26,5.33,19.22,3.98,38.73.72,51.32,4.02,4.32,7.69,5.92,10.53,5.86Z"></path>
  <path class="st7" d="M477.67,252.83c-2.79-.77-5.75-2.09-8.41-4.01-2.85-2.06-7.84-6.45-12.37-14.98-4.38-8.26-6.15-17-6.23-24.92-.09-9.49,1-14.96,2.69-19.26-2.32,5.14-4.04,10.96-4.62,17.16-.7,7.45-.53,12.31-.05,16.12.58,4.66,2.01,16.39,10.62,28.15,4.95,6.13,11.4,9.79,18.5,10.37,1.41-.03,2.85-.23,4.26-.59-1.34-2.11-2.48-4.16-3.37-5.89-.35-.69-.69-1.4-1.03-2.14Z"></path>
  <path class="st7" d="M540.09,265.84s0,0,0-.01c1.45-2.48,3.31-6.55,5.06-12.61-2.9-1.49-5.9-3.88-9.22-7.54-5.87-6.48-13.37-16.2-19.15-36.3,2.58,15.38-.06,27.23-2.03,32.5-1.47,3.92-3.81,7.73-8.04,10.93,9.6,18.37,28.15,20.39,33.38,13.04Z"></path>
  <path class="st7" d="M536.83,183.5c1.06,6.16,4.2,21.49,12.31,34.33.37.58.74,1.14,1.1,1.68.12-2.26.21-4.59.27-7.03.52-21.83-3.74-51.99-10.66-55.72-3.45-1.02-5.4,13.01-3.03,26.74Z"></path>
  <path class="st5" d="M564.69,230.33c-2.85.05-6.51-1.54-10.53-5.86-1.27-1.37-2.58-3.01-3.91-4.96-.37-.54-.73-1.1-1.1-1.68-8.11-12.84-11.25-28.17-12.31-34.33-2.37-13.73-.42-27.76,3.03-26.74-8.02-4.09-14.69-5.48-18.21-5.76-8.2-.65-12.28,30.61-5.69,55.41.27,1.02.55,2.01.83,2.98,5.79,20.1,13.28,29.82,19.15,36.3,3.32,3.66,6.32,6.05,9.22,7.54,2.46,1.27,4.85,1.89,7.31,2.09,2.73.21,8.42-.23,13.35-7.95,4.95-7.75,7.41-17.54,7.95-29.24.08-1.77.12-3.59.12-5.45-1.69,13.76-4.99,17.59-9.19,17.66Z"></path>
  <path class="st5" d="M506.71,252.81c-4.88-9.34-7.44-22.89-4.77-41.6,1.98-13.85,4.04-19.62,5.55-30.15,1.9-13.21,1.27-19.61-3.03-24.45-11.47-12.9-36.08-.58-49.57,20.41-6.54,10.18-10.27,21.84-10.4,34.6-.19,19.92,8.39,51.32,33.4,49.83-.03,0-.06,0-.09,0-7.09-.58-13.55-4.24-18.5-10.37-8.61-11.76-10.04-23.49-10.62-28.15-.48-3.82-.65-8.67.05-16.12.58-6.2,2.3-12.02,4.62-17.16,4.72-10.47,11.94-18.11,17.23-20.38,8.84-3.79,11.4,2.4,8.99,9.02-3.54,9.72-6.13,17-7.63,25.19-1.35,7.39-2.42,16.62-.23,29.77,1.05,6.31,3.26,13.69,5.96,19.58.34.74.68,1.46,1.03,2.14.89,1.73,2.02,3.78,3.37,5.89,2.1,3.3,4.71,6.77,7.7,9.45,4.43,3.98,7.09,5.8,12.05,7.73,4,1.56,23.79,6.92,37.43-11.04.28-.36.55-.73.82-1.11,0-.01.02-.03.03-.04-5.23,7.35-23.78,5.33-33.38-13.04Z"></path>
  <path class="st5" d="M459.01,213.47c2.41.01,4.57-7.48,6.5-16.11,1.73-7.69,3.14-14.92.41-15.89-3.4-1.2-8.12,6.37-10.28,13.96-2.32,8.14-1.12,18.02,3.37,18.04Z"></path>
  <path class="st8" d="M649.77,252.83c-2.79-.77-5.75-2.09-8.41-4.01-2.85-2.06-7.84-6.45-12.37-14.98-4.38-8.26-6.15-17-6.23-24.92-.09-9.49,1-14.96,2.69-19.26-2.32,5.14-4.04,10.96-4.62,17.16-.7,7.45-.53,12.31-.05,16.12.58,4.66,2.01,16.39,10.62,28.15,4.95,6.13,11.4,9.79,18.5,10.37,1.41-.03,2.85-.23,4.26-.59-1.34-2.11-2.48-4.16-3.37-5.89-.35-.69-.69-1.4-1.03-2.14Z"></path>
  <path class="st8" d="M712.2,265.84s0,0,0-.01c1.45-2.48,3.31-6.55,5.06-12.61-2.9-1.49-5.9-3.88-9.22-7.54-5.87-6.48-13.37-16.2-19.15-36.3,2.58,15.38-.06,27.23-2.03,32.5-1.47,3.92-3.81,7.73-8.04,10.93,9.6,18.37,28.15,20.39,33.38,13.04Z"></path>
  <path class="st8" d="M708.93,183.5c1.06,6.16,4.2,21.49,12.31,34.33.37.58.74,1.14,1.1,1.68.12-2.26.21-4.59.27-7.03.52-21.83-3.74-51.99-10.66-55.72-3.45-1.02-5.4,13.01-3.03,26.74Z"></path>
  <path class="st2" d="M736.8,230.33c-2.85.05-6.51-1.54-10.53-5.86-1.27-1.37-2.58-3.01-3.91-4.96-.37-.54-.73-1.1-1.1-1.68-8.11-12.84-11.25-28.17-12.31-34.33-2.37-13.73-.42-27.76,3.03-26.74-8.02-4.09-14.69-5.48-18.21-5.76-8.2-.65-12.28,30.61-5.69,55.41.27,1.02.55,2.01.83,2.98,5.79,20.1,13.28,29.82,19.15,36.3,3.32,3.66,6.32,6.05,9.22,7.54,2.46,1.27,4.85,1.89,7.31,2.09,2.73.21,8.42-.23,13.35-7.95,4.95-7.75,7.41-17.54,7.95-29.24.08-1.77.12-3.59.12-5.45-1.69,13.76-4.99,17.59-9.19,17.66Z"></path>
  <path class="st2" d="M678.81,252.81c-4.88-9.34-7.44-22.89-4.77-41.6,1.98-13.85,4.04-19.62,5.55-30.15,1.9-13.21,1.27-19.61-3.03-24.45-11.47-12.9-36.08-.58-49.57,20.41-6.54,10.18-10.27,21.84-10.4,34.6-.19,19.92,8.39,51.32,33.4,49.83-.03,0-.06,0-.09,0-7.09-.58-13.55-4.24-18.5-10.37-8.61-11.76-10.04-23.49-10.62-28.15-.48-3.82-.65-8.67.05-16.12.58-6.2,2.3-12.02,4.62-17.16,4.72-10.47,11.94-18.11,17.23-20.38,8.84-3.79,11.4,2.4,8.99,9.02-3.54,9.72-6.13,17-7.63,25.19-1.35,7.39-2.42,16.62-.23,29.77,1.05,6.31,3.26,13.69,5.96,19.58.34.74.68,1.46,1.03,2.14.89,1.73,2.02,3.78,3.37,5.89,2.1,3.3,4.71,6.77,7.7,9.45,4.43,3.98,7.09,5.8,12.05,7.73,4,1.56,23.79,6.92,37.43-11.04.28-.36.55-.73.82-1.11,0-.01.02-.03.03-.04-5.23,7.35-23.78,5.33-33.38-13.04Z"></path>
  <path class="st2" d="M631.11,213.47c2.41.01,4.57-7.48,6.5-16.11,1.73-7.69,3.14-14.92.41-15.89-3.4-1.2-8.12,6.37-10.28,13.96-2.32,8.14-1.12,18.02,3.37,18.04Z"></path>
  <g>
    <path class="st2" d="M104.82,357.93l9.49-20.34h2.41l9.57,20.34h-5.34l-1.25-2.66h-8.32l-1.22,2.66h-5.34ZM113.47,350.77h4.15l-2.06-4.47-2.09,4.47Z"></path>
    <path class="st2" d="M143.95,357.93l-9.6-9.63v9.63h-5.34v-20.34h2.17l9.62,9.6v-9.6h5.34v20.34h-2.2Z"></path>
    <path class="st2" d="M161.99,344.32c-.84-.84-2.03-1.33-3.42-1.33-2.77,0-4.77,2.01-4.77,4.77s2.01,4.77,4.77,4.77c1.38,0,2.58-.49,3.42-1.36l3.8,3.74c-1.84,1.84-4.39,3.01-7.21,3.01-5.61,0-10.17-4.56-10.17-10.17s4.56-10.17,10.17-10.17c2.79,0,5.31,1.11,7.16,2.96l-3.74,3.77Z"></path>
    <path class="st2" d="M175.2,337.59v7.24h6.45v-7.24h5.34v20.34h-5.34v-7.75h-6.45v7.75h-5.34v-20.34h5.34Z"></path>
    <path class="st2" d="M200.82,337.59c5.61,0,10.17,4.58,10.17,10.2s-4.55,10.14-10.17,10.14-10.14-4.53-10.14-10.14,4.53-10.2,10.14-10.2ZM200.82,342.9c-2.66,0-4.83,2.17-4.83,4.85s2.17,4.85,4.83,4.85,4.85-2.2,4.85-4.85-2.17-4.85-4.85-4.85Z"></path>
    <path class="st2" d="M226.51,357.93l-3.14-5.4h-3.31v5.4h-5.34v-20.34h8.57c4.12,0,7.48,3.36,7.48,7.48,0,2.17-.95,4.12-2.41,5.48l4.31,7.38h-6.16ZM220.06,347.92h3.31c1.63,0,2.93-1.27,2.93-2.9s-1.3-2.93-2.93-2.93h-3.31v5.83Z"></path>
    <path class="st2" d="M262.44,357.93l-9.6-9.63v9.63h-5.34v-20.34h2.17l9.63,9.6v-9.6h5.34v20.34h-2.2Z"></path>
    <path class="st2" d="M277.12,337.59c5.61,0,10.17,4.58,10.17,10.2s-4.55,10.14-10.17,10.14-10.14-4.53-10.14-10.14,4.53-10.2,10.14-10.2ZM277.12,342.9c-2.66,0-4.83,2.17-4.83,4.85s2.17,4.85,4.83,4.85,4.85-2.2,4.85-4.85-2.17-4.85-4.85-4.85Z"></path>
    <path class="st2" d="M291.01,337.59h7.54c5.61,0,10.17,4.55,10.17,10.17s-4.56,10.17-10.17,10.17h-7.54v-20.34ZM296.32,352.61h2.25c2.66,0,4.83-2.17,4.83-4.83s-2.17-4.8-4.83-4.8h-2.25v9.63Z"></path>
    <path class="st2" d="M312.4,337.59h12.64v4.42h-7.29v3.31h6.45v4.5h-6.45v3.74h7.29v4.37h-12.64v-20.34Z"></path>
  </g>
  <g>
    <g>
      <path class="st2" d="M104.08,404.83l9.15-19.6h2.33l9.23,19.6h-5.15l-1.2-2.56h-8.02l-1.18,2.56h-5.15ZM112.42,397.93h4l-1.99-4.31-2.01,4.31Z"></path>
      <path class="st2" d="M141.79,404.83l-9.25-9.28v9.28h-5.15v-19.6h2.09l9.28,9.25v-9.25h5.15v19.6h-2.12Z"></path>
      <path class="st2" d="M159.17,391.71c-.81-.81-1.96-1.28-3.29-1.28-2.67,0-4.6,1.93-4.6,4.6s1.93,4.6,4.6,4.6c1.33,0,2.48-.47,3.29-1.31l3.66,3.61c-1.78,1.78-4.23,2.9-6.95,2.9-5.41,0-9.8-4.39-9.8-9.8s4.39-9.8,9.8-9.8c2.69,0,5.12,1.07,6.9,2.85l-3.61,3.63Z"></path>
      <path class="st2" d="M171.9,385.23v6.98h6.22v-6.98h5.15v19.6h-5.15v-7.47h-6.22v7.47h-5.15v-19.6h5.15Z"></path>
      <path class="st2" d="M196.6,385.23c5.41,0,9.8,4.42,9.8,9.83s-4.39,9.77-9.8,9.77-9.77-4.36-9.77-9.77,4.36-9.83,9.77-9.83ZM196.6,390.35c-2.56,0-4.65,2.09-4.65,4.68s2.09,4.68,4.65,4.68,4.68-2.12,4.68-4.68-2.09-4.68-4.68-4.68Z"></path>
      <path class="st2" d="M221.35,404.83l-3.03-5.2h-3.19v5.2h-5.15v-19.6h8.26c3.97,0,7.21,3.24,7.21,7.21,0,2.09-.91,3.97-2.33,5.28l4.16,7.11h-5.93ZM215.12,395.19h3.19c1.57,0,2.82-1.23,2.82-2.8s-1.25-2.82-2.82-2.82h-3.19v5.62Z"></path>
    </g>
    <g>
      <path class="st2" d="M142.8,431.67l-9.25-9.28v9.28h-5.15v-19.6h2.09l9.28,9.25v-9.25h5.15v19.6h-2.12Z"></path>
      <path class="st2" d="M156.94,412.07c5.41,0,9.8,4.42,9.8,9.83s-4.39,9.77-9.8,9.77-9.77-4.36-9.77-9.77,4.36-9.83,9.77-9.83ZM156.94,417.19c-2.56,0-4.65,2.09-4.65,4.68s2.09,4.68,4.65,4.68,4.68-2.12,4.68-4.68-2.09-4.68-4.68-4.68Z"></path>
      <path class="st2" d="M170.32,412.07h7.27c5.41,0,9.8,4.39,9.8,9.8s-4.39,9.8-9.8,9.8h-7.27v-19.6ZM175.45,426.55h2.17c2.56,0,4.65-2.09,4.65-4.65s-2.09-4.63-4.65-4.63h-2.17v9.28Z"></path>
      <path class="st2" d="M190.94,412.07h12.18v4.26h-7.03v3.19h6.22v4.34h-6.22v3.61h7.03v4.21h-12.18v-19.6Z"></path>
    </g>
  </g>
  <g>
    <text class="st1" transform="translate(262.02 401.91)"><tspan x="0" y="0">Anchor </tspan></text>
    <text class="st3" transform="translate(261.39 429.96)"><tspan x="0" y="0">Node</tspan></text>
  </g>
  <g>
    <path class="st2" d="M461.86,357.93l9.49-20.34h2.41l9.57,20.34h-5.34l-1.25-2.66h-8.32l-1.22,2.66h-5.34ZM470.51,350.77h4.15l-2.06-4.47-2.09,4.47Z"></path>
    <path class="st2" d="M500.99,357.93l-9.6-9.63v9.63h-5.34v-20.34h2.17l9.62,9.6v-9.6h5.34v20.34h-2.2Z"></path>
    <path class="st2" d="M519.03,344.32c-.84-.84-2.03-1.33-3.42-1.33-2.77,0-4.77,2.01-4.77,4.77s2.01,4.77,4.77,4.77c1.38,0,2.58-.49,3.42-1.36l3.8,3.74c-1.84,1.84-4.39,3.01-7.21,3.01-5.61,0-10.17-4.56-10.17-10.17s4.56-10.17,10.17-10.17c2.79,0,5.31,1.11,7.16,2.96l-3.74,3.77Z"></path>
    <path class="st2" d="M532.24,337.59v7.24h6.45v-7.24h5.34v20.34h-5.34v-7.75h-6.45v7.75h-5.34v-20.34h5.34Z"></path>
    <path class="st2" d="M557.86,337.59c5.61,0,10.17,4.58,10.17,10.2s-4.55,10.14-10.17,10.14-10.14-4.53-10.14-10.14,4.53-10.2,10.14-10.2ZM557.86,342.9c-2.66,0-4.83,2.17-4.83,4.85s2.17,4.85,4.83,4.85,4.85-2.2,4.85-4.85-2.17-4.85-4.85-4.85Z"></path>
    <path class="st2" d="M583.55,357.93l-3.14-5.4h-3.31v5.4h-5.34v-20.34h8.57c4.12,0,7.48,3.36,7.48,7.48,0,2.17-.95,4.12-2.41,5.48l4.31,7.38h-6.16ZM577.1,347.92h3.31c1.63,0,2.93-1.27,2.93-2.9s-1.3-2.93-2.93-2.93h-3.31v5.83Z"></path>
    <path class="st2" d="M619.48,357.93l-9.6-9.63v9.63h-5.34v-20.34h2.17l9.63,9.6v-9.6h5.34v20.34h-2.2Z"></path>
    <path class="st2" d="M634.16,337.59c5.61,0,10.17,4.58,10.17,10.2s-4.55,10.14-10.17,10.14-10.14-4.53-10.14-10.14,4.53-10.2,10.14-10.2ZM634.16,342.9c-2.66,0-4.83,2.17-4.83,4.85s2.17,4.85,4.83,4.85,4.85-2.2,4.85-4.85-2.17-4.85-4.85-4.85Z"></path>
    <path class="st2" d="M648.05,337.59h7.54c5.61,0,10.17,4.55,10.17,10.17s-4.56,10.17-10.17,10.17h-7.54v-20.34ZM653.36,352.61h2.25c2.66,0,4.83-2.17,4.83-4.83s-2.17-4.8-4.83-4.8h-2.25v9.63Z"></path>
    <path class="st2" d="M669.44,337.59h12.64v4.42h-7.29v3.31h6.45v4.5h-6.45v3.74h7.29v4.37h-12.64v-20.34Z"></path>
  </g>
  <g>
    <g>
      <path class="st2" d="M461.12,404.83l9.15-19.6h2.33l9.23,19.6h-5.15l-1.2-2.56h-8.02l-1.18,2.56h-5.15ZM469.46,397.93h4l-1.99-4.31-2.01,4.31Z"></path>
      <path class="st2" d="M498.83,404.83l-9.25-9.28v9.28h-5.15v-19.6h2.09l9.28,9.25v-9.25h5.15v19.6h-2.12Z"></path>
      <path class="st2" d="M516.21,391.71c-.81-.81-1.96-1.28-3.29-1.28-2.67,0-4.6,1.93-4.6,4.6s1.93,4.6,4.6,4.6c1.33,0,2.48-.47,3.29-1.31l3.66,3.61c-1.78,1.78-4.23,2.9-6.95,2.9-5.41,0-9.8-4.39-9.8-9.8s4.39-9.8,9.8-9.8c2.69,0,5.12,1.07,6.9,2.85l-3.61,3.63Z"></path>
      <path class="st2" d="M528.94,385.23v6.98h6.22v-6.98h5.15v19.6h-5.15v-7.47h-6.22v7.47h-5.15v-19.6h5.15Z"></path>
      <path class="st2" d="M553.64,385.23c5.41,0,9.8,4.42,9.8,9.83s-4.39,9.77-9.8,9.77-9.77-4.36-9.77-9.77,4.36-9.83,9.77-9.83ZM553.64,390.35c-2.56,0-4.65,2.09-4.65,4.68s2.09,4.68,4.65,4.68,4.68-2.12,4.68-4.68-2.09-4.68-4.68-4.68Z"></path>
      <path class="st2" d="M578.38,404.83l-3.03-5.2h-3.19v5.2h-5.15v-19.6h8.26c3.97,0,7.21,3.24,7.21,7.21,0,2.09-.91,3.97-2.33,5.28l4.16,7.11h-5.93ZM572.16,395.19h3.19c1.57,0,2.82-1.23,2.82-2.8s-1.25-2.82-2.82-2.82h-3.19v5.62Z"></path>
    </g>
    <g>
      <path class="st2" d="M499.84,431.67l-9.25-9.28v9.28h-5.15v-19.6h2.09l9.28,9.25v-9.25h5.15v19.6h-2.12Z"></path>
      <path class="st2" d="M513.98,412.07c5.41,0,9.8,4.42,9.8,9.83s-4.39,9.77-9.8,9.77-9.77-4.36-9.77-9.77,4.36-9.83,9.77-9.83ZM513.98,417.19c-2.56,0-4.65,2.09-4.65,4.68s2.09,4.68,4.65,4.68,4.68-2.12,4.68-4.68-2.09-4.68-4.68-4.68Z"></path>
      <path class="st2" d="M527.36,412.07h7.27c5.41,0,9.8,4.39,9.8,9.8s-4.39,9.8-9.8,9.8h-7.27v-19.6ZM532.49,426.55h2.17c2.56,0,4.65-2.09,4.65-4.65s-2.09-4.63-4.65-4.63h-2.17v9.28Z"></path>
      <path class="st2" d="M547.98,412.07h12.18v4.26h-7.03v3.19h6.22v4.34h-6.22v3.61h7.03v4.21h-12.18v-19.6Z"></path>
    </g>
  </g>
  <g>
    <text class="st1" transform="translate(619.06 401.91)"><tspan x="0" y="0">Anchor </tspan></text>
    <text class="st3" transform="translate(618.43 429.96)"><tspan x="0" y="0">Node</tspan></text>
  </g>
</svg>